<svg width="77" height="55" viewBox="0 0 77 55" fill="none" xmlns="http://www.w3.org/2000/svg">
<path fill-rule="evenodd" clip-rule="evenodd" d="M43.4274 17.4655C39.7902 16.8146 36.1138 16.4512 32.4411 16.2998C31.0997 16.2648 29.7633 16.1568 28.4245 16.1366C23.6983 16.2235 18.9983 16.6022 14.3558 17.3248L11.2682 17.844C10.2417 18.0254 9.22494 18.2571 8.21346 18.4725C6.9198 18.7739 5.62612 19.1015 4.35187 19.4965C3.07842 19.9038 1.81791 20.3384 0.630167 21.0301C-0.107727 21.4771 0.101302 21.53 0.809277 21.4096C1.1514 21.3369 1.64926 21.2785 2.24701 21.1975C2.8271 21.0876 3.51316 20.9742 4.24081 20.7971C5.51326 20.4458 6.83991 20.2409 8.13452 19.9655L10.1042 19.6473C10.7563 19.5196 11.4093 19.3948 12.071 19.3102C14.7001 18.8903 17.3528 18.5742 20.0271 18.3121C23.2284 18.0074 26.5857 18.0854 29.8634 18.2623C31.6647 18.396 33.4756 18.4184 35.2656 18.6837C37.0551 18.9251 38.8676 19.0278 40.6375 19.4014L43.9257 19.9855C45.029 20.1523 46.0908 20.5015 47.1734 20.7547C50.4653 21.5014 53.6703 22.6329 56.8004 23.8124C57.9867 24.3506 59.1445 24.921 60.2908 25.4983L62.009 26.3567C62.583 26.6382 63.1168 27.004 63.675 27.3178C64.1626 27.6049 64.627 27.9079 65.1236 28.1837C66.9669 29.2068 67.6452 29.3615 68.3998 28.9764C68.5719 28.8877 68.773 28.8171 68.9074 28.709C69.3619 28.3442 68.8148 27.546 67.4946 26.6453C65.5281 25.3351 63.5047 23.936 61.2317 22.9611C60.1105 22.443 58.9738 21.9351 57.8278 21.4344C56.6766 20.9501 55.4683 20.5995 54.2843 20.1834L51.6265 19.3053C50.7366 19.0209 49.8172 18.8414 48.9127 18.6068C47.0922 18.1832 45.2946 17.6673 43.4442 17.4066L43.4274 17.4655Z" fill="#221F1F"/>
<path fill-rule="evenodd" clip-rule="evenodd" d="M73.1524 31.0892L73.217 31.2123L73.2624 31.2755C73.2978 31.3272 73.32 31.3736 73.3546 31.4392C73.3898 31.513 73.2865 31.4757 73.2345 31.4902C73.1425 31.485 73.136 31.5007 72.9311 31.4676C72.3891 31.3648 71.8469 31.219 71.289 31.1455C69.3164 30.8966 67.3033 30.9115 65.3641 31.2199C64.5023 31.3485 63.6412 31.4759 62.798 31.6364C61.7104 31.8173 60.6303 32.084 59.6345 32.5715C59.324 32.7233 59.4656 33.0087 59.8353 33.2454C60.2034 33.4804 60.7964 33.6866 61.3903 33.5838C63.5051 33.214 65.5623 32.9329 67.681 32.7131C68.9575 32.5778 70.2731 32.8111 71.5676 33.0344L72.3893 33.1874L73.6154 33.443C74.0659 33.5383 74.5007 33.6208 74.9217 33.693C75.3254 33.7539 75.8141 33.8737 76.1468 33.8765L75.4783 32.2131L74.7291 30.3235L74.1997 29.0292C73.6552 27.7209 72.9871 26.4427 72.2354 25.2248C71.6466 24.2834 71.0449 23.3441 70.2844 22.5059C70.1229 22.3161 69.9636 22.1297 69.7755 21.9621C69.0929 21.3247 68.7433 21.2885 68.3148 21.5704C68.2156 21.6378 68.1064 21.6969 68.0226 21.7762C67.7416 22.0467 67.8406 22.5137 68.2534 22.9507C69.437 24.3077 70.548 25.7067 71.4302 27.3753C71.7569 27.9931 72.0753 28.6241 72.3616 29.2864C72.5126 29.6108 72.647 29.9521 72.7893 30.2856L73.1081 31.095L73.1524 31.0892Z" fill="#221F1F"/>
</svg>
